<svg version="1.1" id="Layer_1" xmlns="http://www.w3.org/2000/svg" xmlns:xlink="http://www.w3.org/1999/xlink" x="0px" y="0px"
	 width="100%" viewBox="0 0 482 517" enable-background="new 0 0 482 517" xml:space="preserve">
<path fill="#ffffff" opacity="1.000000"  
	d="
M217.000000,518.000000 
	C145.015701,518.000000 73.031387,518.000000 1.023541,518.000000 
	C1.023541,345.719940 1.023541,173.439850 1.023541,1.079888 
	C161.578354,1.079888 322.156769,1.079888 482.867584,1.079888 
	C482.867584,173.333267 482.867584,345.666626 482.872620,518.000000 
	C402.561768,518.000000 322.245911,518.000000 241.556976,517.610718 
	C243.704910,516.830322 246.268860,516.612793 248.735550,516.002258 
	C251.545120,515.306885 255.155884,515.089722 256.886841,513.235168 
	C269.852814,499.343262 279.953583,483.442383 285.524597,465.272125 
	C290.505463,449.026520 294.023743,432.330353 298.120819,415.816498 
	C301.703522,401.375977 305.385437,387.005280 314.951019,375.023529 
	C319.968750,368.738373 324.902435,362.383087 329.730865,355.951935 
	C331.072479,354.164978 331.902313,351.993744 333.264221,349.441803 
	C334.602966,362.567413 334.735352,374.967590 337.327576,386.830261 
	C341.880768,407.666534 354.668976,423.115509 373.015930,433.757690 
	C376.759247,435.928986 381.283875,437.364288 385.589874,437.829712 
	C395.087646,438.856354 403.958649,436.544250 411.256897,430.016968 
	C416.916687,424.955078 422.518066,419.680878 424.151093,411.803833 
	C425.284393,406.337189 425.172089,400.489105 427.039093,395.325897 
	C430.051270,386.995361 435.164917,379.369843 437.715637,370.939667 
	C441.950317,356.944031 445.380890,342.648712 448.181458,328.290649 
	C451.289032,312.358765 453.106842,296.205078 450.750854,279.482056 
	C450.430450,273.965515 450.371979,268.830688 449.593018,263.807587 
	C448.725922,258.216095 447.203033,252.726318 445.908020,246.881073 
	C445.809174,246.363007 445.767853,246.156128 445.799347,245.578369 
	C445.583862,243.799286 445.295624,242.391068 445.003113,240.993332 
	C444.998901,241.003815 445.020294,240.995148 445.006409,240.592529 
	C441.006470,228.109512 437.020386,216.029114 433.033112,203.978195 
	C433.031921,204.007675 433.068756,203.961472 433.065674,203.590607 
	C432.077576,200.975784 431.273041,198.630051 430.075073,196.506195 
	C425.807068,188.939331 421.405212,181.447922 417.037781,173.962433 
	C417.021515,173.996918 417.082855,173.951614 417.001740,173.609116 
	C414.637756,169.515411 412.354889,165.764191 410.041504,162.022217 
	C410.010986,162.031464 410.054901,162.077759 410.375244,162.048401 
	C411.477814,161.369156 412.260071,160.719254 413.050903,160.092804 
	C413.059448,160.116241 413.106323,160.099136 413.461548,160.101944 
	C417.675293,157.378387 421.533813,154.652023 425.392334,151.925659 
	C425.065002,151.234421 424.737671,150.543182 424.410339,149.851944 
	C418.898285,151.890121 413.386230,153.928314 407.615662,155.987396 
	C407.184418,156.015915 407.011688,156.023514 406.776794,155.913879 
	C406.714661,155.796646 406.368896,155.737961 406.368896,155.737961 
	C406.368896,155.737961 406.128876,156.036438 406.088074,156.048065 
	C406.047302,156.059708 406.016510,156.138733 405.733643,155.937302 
	C404.303833,154.803116 403.156891,153.870361 401.863525,152.750763 
	C401.496460,152.331329 401.241394,152.146240 400.927063,151.659088 
	C396.274261,146.193298 391.646332,141.077087 387.007812,135.980804 
	C386.997253,136.000748 387.038269,135.981979 386.883728,135.685654 
	C381.866760,130.798233 377.310059,125.818031 372.073151,121.703552 
	C363.331848,114.835754 354.155457,108.521690 345.061951,101.701523 
	C344.623505,101.273705 344.285339,101.118866 343.665863,100.848228 
	C342.322662,100.144897 341.260773,99.557365 340.085358,98.717545 
	C339.648895,98.323715 339.325989,98.182182 338.687958,97.856567 
	C336.984741,97.319511 335.596619,96.966545 334.095428,96.306564 
	C329.917816,93.650703 325.726196,91.492523 321.827606,88.894615 
	C318.516724,86.688332 312.432770,87.528595 312.839539,80.651093 
	C312.894409,78.161362 312.894409,76.091293 312.894409,74.021217 
	C312.478394,73.898529 312.062378,73.775833 311.646362,73.653137 
	C310.021271,75.844559 308.809296,78.722542 306.648071,80.022964 
	C304.714233,81.186577 301.734039,80.611206 298.500702,80.857567 
	C300.387360,82.131294 301.804688,83.088173 303.839600,84.461983 
	C300.937805,88.738663 298.107422,92.910027 294.963562,97.063431 
	C288.219849,94.379295 281.962524,91.107231 275.312927,89.209824 
	C268.019501,87.128693 260.399841,86.060287 252.858398,85.009705 
	C241.792969,83.468216 230.670746,82.334549 219.331024,80.739853 
	C207.180191,55.456322 195.271057,30.460051 183.361923,5.463777 
	C182.680603,5.670838 181.999283,5.877898 181.317978,6.084959 
	C183.086685,17.854504 184.868362,29.622116 186.620728,41.394096 
	C188.680771,55.233105 190.715347,69.075905 192.436890,82.991516 
	C184.681732,84.593910 177.195038,85.897850 169.837921,87.723846 
	C164.398422,89.073914 159.127686,91.103951 153.413757,92.763718 
	C135.347946,79.570213 117.480225,66.665512 100.000221,53.255421 
	C82.596527,39.903881 65.187698,26.591904 47.490818,13.665173 
	C46.899963,14.322264 46.309105,14.979356 45.718246,15.636447 
	C51.748547,22.522768 57.753338,29.431633 63.814739,36.290466 
	C74.681396,48.586727 85.473129,60.951832 96.502243,73.101097 
	C105.717491,83.252289 115.238365,93.125778 124.582283,103.160980 
	C125.225212,103.851471 125.520622,104.865562 125.632034,105.853241 
	C122.750259,107.455734 120.214096,108.934143 116.799507,110.924614 
	C122.464348,113.667259 126.809280,113.644440 131.551331,111.999741 
	C135.964859,116.308746 140.061188,120.516678 144.284805,124.855370 
	C138.755844,130.042664 135.781174,137.612366 126.302193,133.861633 
	C120.283348,131.480042 113.592659,130.833221 107.248985,129.227737 
	C95.202003,126.178818 83.197540,122.962219 71.157051,119.887169 
	C61.128460,117.325943 51.087654,114.808800 41.021591,112.400322 
	C38.088421,111.698502 35.049942,111.436821 31.885849,110.733658 
	C31.151636,110.361320 30.591303,110.228714 29.681587,110.080566 
	C28.866085,110.052414 28.399961,110.039803 27.783560,109.748901 
	C21.114948,107.915642 14.596618,106.360680 8.078286,104.805717 
	C7.918479,105.438797 7.758673,106.071884 7.598866,106.704964 
	C12.695759,108.879417 17.792652,111.053879 23.155602,113.444946 
	C30.690857,117.195267 37.888218,120.886887 45.242920,124.232628 
	C66.075470,133.709595 86.957733,143.077866 107.853172,152.415649 
	C113.915565,155.124832 120.088295,157.587112 125.941765,160.506653 
	C105.811035,160.910034 85.948845,160.945160 66.087303,161.078659 
	C64.640465,161.088394 63.198414,161.811829 61.453415,162.321564 
	C51.725441,175.332092 44.408077,189.310806 38.500462,204.945984 
	C41.799080,204.945984 44.114071,204.945709 46.429062,204.946014 
	C71.074837,204.949234 95.720673,204.932343 120.366272,204.999557 
	C122.079376,205.004227 123.790771,205.633850 125.418236,206.296265 
	C123.791122,211.018143 120.670784,212.763214 116.042252,213.150146 
	C112.507431,213.445602 109.091568,215.017685 105.590858,215.894379 
	C93.458954,218.932602 81.301323,221.869064 69.184891,224.967072 
	C67.305458,225.447617 65.590172,226.570084 63.798977,227.395706 
	C63.921459,227.933792 64.043938,228.471893 64.166420,229.009995 
	C72.485451,229.009995 80.804474,229.009995 89.286591,229.411072 
	C99.964180,229.872925 110.478668,229.933701 121.122871,230.366852 
	C123.552322,238.170837 125.852058,245.602478 127.886917,253.390945 
	C126.136986,253.832260 124.651978,253.989807 123.166893,253.990433 
	C92.611809,254.003296 62.056717,253.998291 31.501627,253.996826 
	C29.750162,253.996735 27.998699,253.996811 26.133560,253.996811 
	C26.133560,256.502899 26.133560,258.376068 26.124950,260.368896 
	C26.116343,260.488525 26.182028,260.719238 25.767231,260.934265 
	C25.207247,270.289307 24.829477,279.435181 25.058167,288.565857 
	C25.127048,291.316101 26.881554,294.024109 28.245575,296.838318 
	C32.828926,296.916687 37.030697,296.923828 41.232239,296.896393 
	C49.704552,296.841095 58.176739,296.766998 67.135727,296.830261 
	C80.778313,296.880310 93.934151,296.800781 107.549286,296.782501 
	C122.524986,296.886902 137.041382,296.930054 151.861359,297.162659 
	C152.939102,298.908112 154.492523,300.536682 154.355453,302.007751 
	C153.685593,309.197021 152.873993,316.402863 151.529465,323.492310 
	C149.619705,333.561951 152.284195,338.092163 162.284561,340.262756 
	C164.211563,340.681000 166.426895,340.310455 168.119736,341.119110 
	C169.877899,341.958954 171.163544,343.787994 172.521515,345.198425 
	C172.387192,345.212372 172.133118,345.318237 171.668137,345.171051 
	C128.937134,345.012543 86.671104,344.990906 44.405128,345.032990 
	C42.926735,345.034454 41.448967,345.670135 39.647507,346.198364 
	C39.842583,352.332397 41.781399,357.677216 45.975311,362.037201 
	C45.987770,362.001465 45.912094,361.999176 45.933342,362.321960 
	C46.301418,363.110596 46.648243,363.576416 46.997070,364.018158 
	C46.999077,363.994110 46.951542,364.003296 46.989708,364.343689 
	C47.665760,365.809113 48.303642,366.934082 48.970650,368.036377 
	C48.999779,368.013672 48.926701,368.011993 48.932083,368.333466 
	C49.277977,369.118042 49.618484,369.581146 49.977234,370.021057 
	C49.995472,369.997864 49.944790,370.036926 49.954247,370.402039 
	C51.623070,373.521393 53.282433,376.275604 54.966606,379.014404 
	C54.991421,378.998962 54.958790,379.038727 54.995552,379.309692 
	C55.341064,379.737549 55.649818,379.894379 55.971878,380.025330 
	C55.985180,379.999451 55.938782,380.050323 55.925148,380.340820 
	C56.173710,381.083252 56.435905,381.535187 56.829651,382.319000 
	C57.687943,383.556030 58.414684,384.461121 59.159893,385.497070 
	C59.276794,385.801819 59.425400,385.877869 59.753551,386.271790 
	C61.301651,387.455688 62.718712,388.891357 64.139336,388.894928 
	C103.058662,388.991791 141.978363,388.942566 180.988541,389.129272 
	C181.234207,389.617218 181.456940,389.819122 181.795807,390.348938 
	C183.546799,402.643433 191.759964,410.218567 203.660889,411.054779 
	C205.606110,411.191467 207.901840,411.413727 209.365967,412.499420 
	C218.832993,419.519531 229.223083,425.653534 234.374542,437.142700 
	C233.494522,437.618774 232.809952,437.889679 231.956802,437.735535 
	C227.157059,437.208649 222.525955,437.021912 217.894730,437.018494 
	C183.688934,436.993469 149.483093,437.004974 114.539619,437.004974 
	C115.284302,438.305328 115.771935,439.156830 116.359131,440.331726 
	C127.056038,445.976349 137.354218,452.040863 148.317444,456.452881 
	C167.031494,463.984253 186.441315,469.159668 207.095947,469.396790 
	C213.431335,469.863190 219.566162,470.028656 225.697937,469.951019 
	C227.858673,469.923645 230.011871,469.301361 232.562744,468.962219 
	C234.500046,469.017151 236.043106,469.060669 237.663605,469.524475 
	C237.404266,473.373383 237.445618,476.901520 236.579819,480.190826 
	C236.108536,481.981232 234.276825,484.486115 232.747696,484.731659 
	C227.380920,485.593384 221.841782,486.195068 216.435654,485.846710 
	C199.849625,484.778046 183.104065,484.563202 167.139725,478.957977 
	C155.473053,474.861633 143.436203,471.566956 132.253845,466.417694 
	C121.878693,461.640137 112.139961,455.288788 102.634453,448.870087 
	C93.664986,442.813416 85.019363,436.160065 76.879669,429.029083 
	C70.461349,423.406219 64.519112,417.055115 59.275566,410.318970 
	C51.176678,399.914734 42.742195,389.514893 36.447128,378.019531 
	C25.109222,357.315582 16.405466,335.352539 13.810965,311.593719 
	C12.123544,296.141388 11.319681,280.592590 10.370197,264.761139 
	C12.022265,253.612183 13.424111,242.789108 15.061872,231.641998 
	C16.217783,227.041061 17.180340,222.772690 18.039660,218.483612 
	C18.463598,216.367615 18.696882,214.213409 19.347324,211.926895 
	C21.538374,207.084259 23.398535,202.391220 25.258698,197.698196 
	C24.741060,197.497452 24.223423,197.296707 23.705786,197.095978 
	C21.869499,201.708298 20.033213,206.320618 18.003672,211.265076 
	C15.892808,218.070587 13.975200,224.543976 11.786247,231.270035 
	C10.070591,236.936630 8.382215,242.300262 7.253990,247.779266 
	C6.226952,252.766861 5.808148,257.879700 5.082829,263.260712 
	C4.967380,264.011047 4.890337,264.438019 4.571263,265.100250 
	C4.293082,266.217255 4.256932,267.098999 4.178188,268.389282 
	C4.079194,270.165924 4.022793,271.533997 3.692391,273.218262 
	C3.317579,277.000427 3.216768,280.466492 3.086826,284.344055 
	C3.072664,285.854584 3.087633,286.953613 3.059558,288.471741 
	C3.043327,290.575989 3.070139,292.261139 3.068635,294.331451 
	C3.061157,295.488007 3.081996,296.259399 3.089895,297.260956 
	C3.076955,297.491089 3.133576,297.948608 3.127175,298.233002 
	C3.129156,298.706848 3.137538,298.896301 3.100294,299.529053 
	C3.070806,302.963715 3.086945,305.955078 3.050317,309.365906 
	C5.810737,323.433838 6.879326,337.317444 10.498199,350.935974 
	C14.688251,366.703979 20.124678,381.888550 27.676722,396.106384 
	C34.253124,408.487396 42.782944,419.851227 50.696934,431.496460 
	C61.854965,447.915192 76.558701,461.055542 92.352341,472.581024 
	C109.894142,485.382233 128.704895,496.217194 149.644012,503.178772 
	C170.333862,510.057434 191.065033,515.915161 213.062897,516.075684 
	C214.379883,516.085327 215.687836,517.330017 217.000000,518.000000 
z"/>
<path fill="#1C274B" opacity="1.000000" stroke="none" 
	d="
M89.123497,229.010010 
	C80.804474,229.009995 72.485451,229.009995 64.166420,229.009995 
	C64.043938,228.471893 63.921459,227.933792 63.798977,227.395706 
	C65.590172,226.570084 67.305458,225.447617 69.184891,224.967072 
	C81.301323,221.869064 93.458954,218.932602 105.590858,215.894379 
	C109.091568,215.017685 112.507431,213.445602 116.042252,213.150146 
	C120.670784,212.763214 123.791122,211.018143 125.651085,206.013809 
	C131.157425,200.496918 136.371353,195.611877 141.507278,190.646164 
	C142.259857,189.918518 142.641357,188.807053 143.503448,188.001419 
	C148.388702,187.291779 153.332047,187.258240 157.436478,185.385834 
	C161.401749,183.576874 164.502365,179.872589 168.299957,177.108612 
	C169.800232,176.958954 171.029266,176.828964 172.158463,176.421982 
	C176.914871,174.707748 181.549118,171.779861 186.398575,171.383804 
	C195.977463,170.601486 205.669449,171.203934 215.643097,171.354370 
	C220.166031,172.511673 224.402023,173.405594 228.547775,174.610199 
	C245.206726,179.450684 259.748566,188.446060 274.230499,198.225403 
	C284.844879,207.024673 295.234039,215.578445 305.792297,224.431549 
	C313.260803,231.277817 320.508972,237.883759 327.909546,244.314331 
	C329.159424,245.400406 331.079437,246.343109 332.666992,246.308426 
	C341.378479,246.118011 350.633270,239.050140 353.438782,230.747452 
	C354.508301,227.582306 354.797150,224.592697 351.650940,223.023773 
	C346.117950,226.443161 341.016083,229.596130 335.914215,232.749084 
	C335.512207,232.217743 335.110199,231.686417 334.708221,231.155075 
	C335.516632,230.037415 336.304749,228.904388 337.137390,227.805069 
	C339.430969,224.776901 341.890961,221.858902 343.955200,218.682877 
	C344.551758,217.765060 344.586792,215.607346 343.929749,214.899750 
	C340.942932,211.683075 337.617188,208.781097 334.406677,205.759628 
	C331.410156,209.255737 329.280884,212.572311 326.370392,214.920609 
	C322.897705,217.722458 318.755798,219.694901 315.010437,221.701599 
	C319.083649,215.140015 323.141754,208.957840 326.917114,202.607559 
	C327.475067,201.669022 327.214111,199.394623 326.448181,198.660706 
	C322.533691,194.909866 318.329224,191.461685 313.831543,187.565796 
	C309.091644,195.612228 304.769958,203.400360 296.395172,207.475235 
	C301.256561,200.266037 304.640198,192.629501 305.223999,183.963974 
	C305.325562,182.456482 305.132141,180.284256 304.176971,179.461182 
	C299.854401,175.736420 295.209564,172.385666 291.016510,169.158630 
	C286.790527,176.254959 282.920471,182.753632 278.670044,189.230240 
	C278.270111,187.858521 278.023743,186.465988 278.269409,185.166473 
	C279.466949,178.832550 280.899048,172.541245 281.992737,166.190887 
	C282.214935,164.900726 281.795044,162.780075 280.891113,162.134323 
	C275.582550,158.342239 270.042664,154.873932 263.774353,150.768265 
	C262.890625,161.030853 262.646759,170.195084 257.880127,177.778397 
	C257.256927,170.582336 256.935028,163.173813 255.907028,155.864609 
	C254.382904,145.027832 248.523865,139.972351 236.473694,138.692551 
	C237.501709,149.015839 236.609406,159.074326 232.478485,168.693207 
	C232.013428,164.568024 232.394409,160.426178 231.932434,156.380569 
	C231.029800,148.476257 230.023682,140.511200 224.826797,133.528946 
	C219.936676,132.020905 215.241653,130.673767 210.469116,129.710678 
	C208.911484,129.396347 207.151947,130.082565 205.484741,130.311203 
	C205.905533,132.541473 206.326340,134.771759 206.773773,137.339386 
	C206.854965,138.124527 206.909515,138.572311 206.777344,139.314697 
	C206.699738,141.196335 207.221298,142.905060 206.799255,144.335358 
	C206.396271,145.701035 205.010666,146.776764 204.049072,147.723251 
	C204.033295,147.295532 204.025406,147.124496 203.989532,146.577179 
	C202.954803,144.145493 201.948044,142.090073 200.959625,140.012909 
	C200.977951,139.991150 200.964813,140.045776 200.910034,139.761017 
	C200.562271,138.985809 200.269287,138.495361 199.990295,138.004654 
	C200.004288,138.004410 199.981201,138.022293 199.984406,137.631409 
	C199.516647,133.265961 198.611343,129.632645 193.215469,129.149292 
	C187.917877,129.117355 183.060760,129.117355 177.690842,129.117355 
	C180.157944,136.743164 182.432587,142.941635 184.142380,149.292175 
	C185.867554,155.699722 188.411835,162.135223 185.904129,170.404709 
	C184.819992,167.604294 184.133041,166.038086 183.600739,164.420990 
	C180.191803,154.064896 175.361847,144.427124 168.627029,135.852295 
	C167.522797,134.446411 164.884521,132.993210 163.424820,133.371902 
	C160.091309,134.236694 157.048676,136.222855 154.230560,137.587570 
	C157.782166,144.604935 160.898239,150.761749 163.982391,157.266006 
	C163.754486,160.339172 162.353241,161.052841 159.944153,160.016724 
	C159.975296,160.001434 159.945847,160.064285 159.937912,159.707108 
	C158.936310,158.252655 157.942642,157.155380 156.956909,156.041016 
	C156.964828,156.023926 156.936691,156.064377 156.905243,155.711731 
	C155.548218,153.930283 154.222656,152.501480 152.916611,151.039902 
	C152.936127,151.007126 152.938812,151.083359 152.867325,150.736115 
	C151.566757,147.149246 149.542084,144.957565 145.646881,145.095886 
	C145.517715,145.132080 145.285812,145.266953 145.036346,145.043335 
	C140.434402,144.708633 138.940842,148.014816 138.228897,151.209152 
	C137.219025,155.740234 139.524826,158.777695 144.249420,160.083450 
	C144.681137,160.328094 144.892181,160.514435 145.039764,161.124329 
	C144.808731,164.341125 143.906158,165.451614 140.853516,163.964432 
	C139.227966,163.172485 137.073120,163.466965 135.157181,163.271072 
	C135.329193,165.808640 135.501205,168.346191 135.764236,171.283081 
	C136.986389,175.477997 138.117523,179.273605 138.885086,183.073471 
	C133.425735,179.063416 130.536270,173.723938 128.974792,167.515656 
	C128.512405,165.677200 127.595909,163.952972 127.082336,161.916595 
	C126.921593,161.158722 126.566025,160.660629 126.210457,160.162552 
	C120.088295,157.587112 113.915565,155.124832 107.853172,152.415649 
	C86.957733,143.077866 66.075470,133.709595 45.242920,124.232628 
	C37.888218,120.886887 30.690857,117.195267 23.344048,113.155090 
	C24.822237,111.774796 26.378038,110.900993 27.933838,110.027191 
	C28.399961,110.039803 28.866085,110.052414 29.900963,110.255661 
	C30.999722,110.622002 31.529726,110.797699 32.059731,110.973396 
	C35.049942,111.436821 38.088421,111.698502 41.021591,112.400322 
	C51.087654,114.808800 61.128460,117.325943 71.157051,119.887169 
	C83.197540,122.962219 95.202003,126.178818 107.248985,129.227737 
	C113.592659,130.833221 120.283348,131.480042 126.302193,133.861633 
	C135.781174,137.612366 138.755844,130.042664 144.284805,124.855370 
	C140.061188,120.516678 135.964859,116.308746 131.553589,111.634285 
	C129.485001,109.354897 127.731323,107.542030 125.977646,105.729164 
	C125.520622,104.865562 125.225212,103.851471 124.582283,103.160980 
	C115.238365,93.125778 105.717491,83.252289 96.502243,73.101097 
	C85.473129,60.951832 74.681396,48.586727 63.814739,36.290466 
	C57.753338,29.431633 51.748547,22.522768 45.718246,15.636447 
	C46.309105,14.979356 46.899963,14.322264 47.490818,13.665173 
	C65.187698,26.591904 82.596527,39.903881 100.000221,53.255421 
	C117.480225,66.665512 135.347946,79.570213 153.380920,93.089417 
	C161.029388,99.211899 168.314667,104.977989 175.694870,110.619904 
	C176.525467,111.254860 177.894485,111.417198 179.010437,111.407532 
	C184.166885,111.362839 189.334641,111.335632 194.468094,110.924629 
	C195.595352,110.834373 197.622726,109.035728 197.503586,108.306992 
	C196.114716,99.812286 194.393921,91.371857 192.760956,82.917061 
	C190.715347,69.075905 188.680771,55.233105 186.620728,41.394096 
	C184.868362,29.622116 183.086685,17.854504 181.317978,6.084959 
	C181.999283,5.877898 182.680603,5.670838 183.361923,5.463777 
	C195.271057,30.460051 207.180191,55.456322 219.235718,81.097763 
	C224.119293,91.805397 228.856461,101.867874 233.655319,112.220825 
	C233.784348,112.696602 233.851715,112.881905 234.101898,113.367455 
	C235.265198,115.565880 235.953674,117.718674 237.317398,119.282692 
	C238.433731,120.562950 240.329361,121.854034 241.923264,121.910736 
	C249.777618,122.190178 257.726166,121.366486 265.489258,122.257660 
	C274.306091,123.269814 281.699860,122.940559 285.109314,112.847763 
	C285.150757,112.608246 285.173187,112.122635 285.488586,112.006760 
	C288.961670,106.954384 292.119385,102.017891 295.277069,97.081390 
	C298.107422,92.910027 300.937805,88.738663 303.839600,84.461983 
	C301.804688,83.088173 300.387360,82.131294 298.500702,80.857567 
	C301.734039,80.611206 304.714233,81.186577 306.648071,80.022964 
	C308.809296,78.722542 310.021271,75.844559 311.646362,73.653137 
	C312.062378,73.775833 312.478394,73.898529 312.894409,74.021217 
	C312.894409,76.091293 312.894409,78.161362 312.525238,80.828186 
	C311.799652,84.021080 311.443207,86.617233 311.234436,89.552124 
	C310.966248,94.523369 310.550476,99.155876 309.824890,104.010788 
	C309.371094,107.198662 309.227051,110.164116 309.002686,113.526855 
	C308.296722,118.296219 307.671112,122.668312 307.056000,126.966949 
	C307.866180,127.400757 308.263641,127.708328 308.712708,127.840233 
	C322.332642,131.840973 335.699432,136.531403 347.240692,145.041275 
	C354.524658,150.412094 361.316681,156.450073 368.346222,162.522797 
	C370.665680,167.289673 372.644653,167.510300 378.481384,163.797974 
	C383.485260,162.035553 388.166687,160.424133 393.234131,158.679855 
	C388.137756,151.558228 383.571533,145.177460 378.988708,138.432602 
	C378.151550,136.041092 377.330963,134.013672 376.183807,131.179398 
	C380.243774,132.975739 383.641022,134.478851 387.038269,135.981979 
	C387.038269,135.981979 386.997253,136.000748 387.032349,136.344879 
	C390.862122,142.550964 394.346130,148.694443 400.951874,152.008652 
	C401.241394,152.146240 401.496460,152.331329 401.928040,153.101746 
	C403.600983,158.092941 403.680267,158.144043 406.016510,156.138733 
	C406.016510,156.138733 406.047302,156.059708 406.265076,156.040497 
	C406.482819,156.021301 406.838959,156.031113 406.838959,156.031113 
	C407.011688,156.023514 407.184418,156.015915 408.027283,156.000885 
	C411.701752,155.713974 413.189789,157.062775 413.106323,160.099136 
	C413.106323,160.099136 413.059448,160.116241 412.713379,160.103577 
	C411.596497,160.753204 410.825714,161.415482 410.054901,162.077759 
	C410.054901,162.077759 410.010986,162.031464 409.821320,162.290131 
	C409.329651,167.187958 412.261414,171.674545 417.082855,173.951614 
	C417.082855,173.951614 417.021515,173.996918 417.045776,174.350067 
	C417.596649,176.425995 417.942261,178.231003 418.680939,179.857452 
	C421.977234,187.115280 425.264984,194.383423 428.869659,201.488617 
	C429.488770,202.708923 431.630432,203.156784 433.068756,203.961472 
	C433.068756,203.961472 433.031921,204.007675 433.019287,204.414825 
	C433.119781,206.639206 432.876587,208.568466 433.406830,210.254532 
	C435.886902,218.141052 438.478271,225.996887 441.255676,233.783142 
	C442.158051,236.312897 443.745972,238.598083 445.020294,240.995148 
	C445.020294,240.995148 444.998901,241.003815 444.984619,241.327164 
	C445.222412,243.083420 445.474487,244.516327 445.726562,245.949234 
	C445.767853,246.156128 445.809174,246.363007 445.915894,247.320251 
	C446.839874,256.427673 447.597717,264.797150 448.622253,273.133789 
	C448.906128,275.443573 449.982300,277.655975 450.694946,279.913055 
	C453.106842,296.205078 451.289032,312.358765 448.181458,328.290649 
	C445.380890,342.648712 441.950317,356.944031 437.715637,370.939667 
	C435.164917,379.369843 430.051270,386.995361 427.039093,395.325897 
	C425.172089,400.489105 425.284393,406.337189 424.151093,411.803833 
	C422.518066,419.680878 416.916687,424.955078 411.256897,430.016968 
	C403.958649,436.544250 395.087646,438.856354 385.589874,437.829712 
	C381.283875,437.364288 376.759247,435.928986 373.015930,433.757690 
	C354.668976,423.115509 341.880768,407.666534 337.327576,386.830261 
	C334.735352,374.967590 334.602966,362.567413 333.264221,349.441803 
	C331.902313,351.993744 331.072479,354.164978 329.730865,355.951935 
	C324.902435,362.383087 319.968750,368.738373 314.951019,375.023529 
	C305.385437,387.005280 301.703522,401.375977 298.120819,415.816498 
	C294.023743,432.330353 290.505463,449.026520 285.524597,465.272125 
	C279.953583,483.442383 269.852814,499.343262 256.886841,513.235168 
	C255.155884,515.089722 251.545120,515.306885 248.735550,516.002258 
	C246.268860,516.612793 243.704910,516.830322 241.091949,517.610718 
	C233.312424,518.000000 225.624832,518.000000 217.468628,518.000000 
	C215.687836,517.330017 214.379883,516.085327 213.062897,516.075684 
	C191.065033,515.915161 170.333862,510.057434 149.644012,503.178772 
	C128.704895,496.217194 109.894142,485.382233 92.352341,472.581024 
	C76.558701,461.055542 61.854965,447.915192 50.696934,431.496460 
	C42.782944,419.851227 34.253124,408.487396 27.676722,396.106384 
	C20.124678,381.888550 14.688251,366.703979 10.498199,350.935974 
	C6.879326,337.317444 5.810737,323.433838 3.244262,309.030914 
	C3.375956,305.212921 3.260938,302.149323 3.145920,299.085754 
	C3.137538,298.896301 3.129156,298.706848 3.198472,298.125916 
	C3.361437,297.470032 3.303659,297.235474 3.102835,297.030823 
	C3.081996,296.259399 3.061157,295.488007 3.253649,294.038574 
	C3.345521,291.591248 3.224062,289.821960 3.102602,288.052643 
	C3.087633,286.953613 3.072664,285.854584 3.281611,283.998932 
	C3.659149,279.795563 3.812771,276.348846 3.966393,272.902100 
	C4.022793,271.533997 4.079194,270.165924 4.440035,268.276550 
	C4.767416,266.791840 4.790356,265.828430 4.813295,264.864990 
	C4.890337,264.438019 4.967380,264.011047 5.256397,263.009949 
	C5.982543,261.528564 6.496715,260.621307 7.316483,259.174866 
	C8.456226,261.578400 9.288102,263.332703 10.119976,265.087006 
	C11.319681,280.592590 12.123544,296.141388 13.810965,311.593719 
	C16.405466,335.352539 25.109222,357.315582 36.447128,378.019531 
	C42.742195,389.514893 51.176678,399.914734 59.275566,410.318970 
	C64.519112,417.055115 70.461349,423.406219 76.879669,429.029083 
	C85.019363,436.160065 93.664986,442.813416 102.634453,448.870087 
	C112.139961,455.288788 121.878693,461.640137 132.253845,466.417694 
	C143.436203,471.566956 155.473053,474.861633 167.139725,478.957977 
	C183.104065,484.563202 199.849625,484.778046 216.435654,485.846710 
	C221.841782,486.195068 227.380920,485.593384 232.747696,484.731659 
	C234.276825,484.486115 236.108536,481.981232 236.579819,480.190826 
	C237.445618,476.901520 237.404266,473.373383 238.020615,469.339722 
	C239.141754,465.764984 240.618179,462.813354 240.702942,459.822327 
	C240.934052,451.666992 239.980209,443.658264 234.570007,436.937592 
	C229.223083,425.653534 218.832993,419.519531 209.365967,412.499420 
	C207.901840,411.413727 205.606110,411.191467 203.660889,411.054779 
	C191.759964,410.218567 183.546799,402.643433 181.871948,389.960052 
	C183.145828,384.155090 182.513870,379.835693 178.221222,376.229828 
	C174.619797,373.204620 173.902924,369.015717 174.845184,364.437225 
	C175.199478,362.715729 175.272598,360.846710 175.026108,359.108459 
	C174.365356,354.448792 173.462509,349.823425 172.655838,345.184448 
	C171.163544,343.787994 169.877899,341.958954 168.119736,341.119110 
	C166.426895,340.310455 164.211563,340.681000 162.284561,340.262756 
	C152.284195,338.092163 149.619705,333.561951 151.529465,323.492310 
	C152.873993,316.402863 153.685593,309.197021 154.355453,302.007751 
	C154.492523,300.536682 152.939102,298.908112 151.994141,296.810974 
	C149.072128,289.976410 145.808517,283.844788 146.015976,276.654449 
	C146.036530,275.941711 145.385239,275.125427 144.875549,274.494781 
	C140.628082,269.238983 136.340683,264.015442 132.018723,258.533142 
	C131.736786,258.047668 131.501450,257.811249 131.212341,257.284424 
	C130.558746,256.261139 129.958954,255.528198 129.328827,254.509064 
	C128.916245,253.826584 128.534027,253.430344 128.151794,253.034103 
	C125.852058,245.602478 123.552322,238.170837 120.898956,229.996948 
	C110.071388,229.173141 99.597443,229.091568 89.123497,229.010010 
M294.760406,237.187195 
	C292.737000,235.357834 290.615356,231.924530 288.711090,232.041138 
	C285.023926,232.266937 280.776703,233.751526 278.127258,236.195160 
	C276.772552,237.444626 278.186310,241.929428 278.726624,244.882843 
	C278.937653,246.036224 280.185486,246.999908 280.795929,248.779373 
	C280.859528,249.272858 280.749207,249.901428 281.012207,250.240021 
	C287.276886,258.304901 295.651154,263.706787 304.426086,268.563049 
	C305.166626,268.972870 306.707581,269.103241 307.179840,268.645111 
	C310.710846,265.219818 314.145813,261.683716 317.398834,257.995331 
	C317.943268,257.378021 317.926636,255.279099 317.380890,254.836243 
	C310.089447,248.919159 304.260834,241.082565 294.760406,237.187195 
M395.206268,205.892792 
	C395.359802,206.858063 395.452393,207.837753 395.676514,208.786346 
	C397.524689,216.608063 399.715912,224.365295 401.169983,232.258728 
	C402.538818,239.689194 403.138153,247.261383 403.358856,255.102203 
	C402.265747,264.237915 401.102234,273.366608 400.185181,282.519958 
	C400.090302,283.466736 401.284668,285.227325 402.185577,285.467529 
	C405.592163,286.375916 409.124420,286.813080 413.245148,287.868683 
	C418.284851,291.328644 423.324554,294.788574 428.437378,298.298706 
	C433.021942,252.479996 423.984314,209.902786 400.168213,169.546310 
	C395.857422,172.778610 391.991272,175.677490 387.787262,177.999084 
	C382.341736,178.870590 381.482727,180.497665 383.837555,184.950912 
	C386.635895,190.243027 389.194489,195.662170 392.007782,200.945969 
	C392.822571,202.476257 394.155212,203.730850 395.206268,205.892792 
M205.277023,226.745605 
	C208.786789,228.192169 212.178497,230.133209 215.825745,231.004074 
	C237.482712,236.175232 256.757935,226.412720 276.980225,221.729797 
	C276.630402,220.658142 276.626770,220.243729 276.421478,220.075668 
	C261.555847,207.906418 245.716095,197.308655 227.714310,190.286926 
	C226.307220,189.738083 224.549042,190.089310 222.364899,189.828568 
	C212.068802,185.374252 201.030930,185.779221 190.674545,187.659546 
	C182.679886,189.111099 175.394531,194.418045 167.761124,197.940002 
	C165.264114,199.092072 162.737320,200.628220 160.098709,200.945511 
	C149.720337,202.193436 140.279510,205.032623 136.610428,216.050217 
	C134.880890,221.243652 134.172348,226.988968 134.157837,232.487259 
	C134.140213,239.156342 136.047913,245.601685 140.298080,251.317184 
	C141.018951,248.883865 141.122147,246.499969 141.000412,244.127609 
	C140.562515,235.593521 142.893387,227.906281 147.564926,220.775604 
	C152.642578,213.025070 162.375137,212.829910 168.894333,207.398026 
	C169.907349,206.553986 172.399200,206.562836 173.734055,207.187820 
	C179.305664,209.796432 184.855087,212.529694 190.109024,215.717651 
	C195.290222,218.861450 200.105286,222.608704 205.277023,226.745605 
M338.803802,280.340424 
	C334.501465,272.005646 324.897522,269.766418 318.195312,276.152893 
	C314.173462,279.985291 311.168854,284.904358 307.823547,289.421295 
	C305.409973,292.680176 303.188324,296.081207 300.881073,299.418823 
	C300.439362,299.438324 299.997620,299.457794 299.555908,299.477295 
	C298.972900,287.334229 290.990417,280.843262 281.791046,275.744263 
	C268.406067,268.325287 257.449829,259.022797 253.591797,243.305771 
	C252.106750,243.535263 250.944000,243.571732 249.872055,243.902451 
	C237.153992,247.826309 224.123047,248.655487 210.919479,248.049881 
	C209.354065,247.978073 207.758041,248.573624 205.426895,248.928452 
	C190.697144,245.523468 177.562958,238.983795 166.064377,228.031418 
	C164.846405,231.931870 163.871292,235.028381 162.912506,238.129959 
	C160.034409,247.440399 157.035263,256.716461 154.361816,266.085419 
	C153.497238,269.115295 153.759583,271.934875 156.862717,274.418518 
	C163.318771,279.585754 164.214813,286.919769 163.327637,294.661377 
	C162.195374,304.541656 161.116837,314.428040 160.016586,324.311981 
	C159.545120,328.547180 161.666473,329.867249 165.383698,328.666687 
	C169.754791,327.254883 174.012009,325.490540 178.964859,323.626953 
	C183.642014,321.749176 188.319183,319.871399 193.715347,318.032715 
	C198.024643,320.208344 199.216965,323.577637 196.030060,327.211060 
	C193.301666,330.321777 189.707581,332.679535 186.461731,335.327881 
	C184.232910,337.146423 181.944717,338.892212 179.599030,340.736603 
	C191.240036,345.544189 201.789276,349.900940 213.545425,354.756104 
	C205.345764,355.901611 198.344177,356.565094 191.496994,357.977295 
	C188.364990,358.623260 184.801041,360.111267 182.824020,362.412445 
	C181.453720,364.007446 181.646454,369.651550 182.547028,370.016479 
	C186.183838,371.490326 190.515976,372.913544 194.169098,369.631470 
	C197.055099,373.604980 193.523163,375.151489 191.271576,377.077820 
	C187.776749,380.067841 187.014984,384.822662 189.971649,387.740295 
	C191.031937,394.261322 193.300568,399.920532 200.903351,402.567810 
	C206.899139,404.914795 212.781631,403.723969 218.412796,401.512695 
	C223.660568,399.451996 228.792328,397.009064 233.755890,394.328400 
	C246.469803,387.462006 258.932709,380.121429 271.750580,373.460388 
	C279.535919,369.414642 285.250824,363.852814 288.198456,355.628815 
	C290.413971,349.447510 292.341888,343.163147 295.170990,337.137543 
	C298.860199,339.516846 302.147705,339.969574 304.876099,335.597778 
	C305.471283,334.644165 306.943176,334.121429 308.113861,333.661072 
	C321.278717,328.484131 332.869385,321.530609 338.539856,307.581390 
	C342.125488,298.760803 344.119263,289.969788 338.803802,280.340424 
M354.157654,312.571106 
	C353.299225,311.973633 352.440765,311.376160 350.843872,310.264709 
	C348.858734,318.973297 346.325256,326.897400 345.371857,335.007263 
	C343.891541,347.598938 345.798981,359.923279 353.144836,370.619415 
	C355.221985,373.643951 358.003876,377.380615 363.251892,375.563721 
	C368.404907,373.779785 369.847534,369.977234 369.989105,365.164276 
	C370.018250,364.173157 370.034729,363.135651 369.788544,362.189392 
	C366.532593,349.673767 365.796631,337.339020 372.109161,326.599091 
	C365.951996,321.824799 360.289642,317.434204 354.157654,312.571106 
z"/>
<path fill="#F01E27" opacity="1.000000" stroke="none" 
	d="
M59.624172,385.856049 
	C59.425400,385.877869 59.276794,385.801819 59.194733,385.117371 
	C59.168198,384.105530 59.125294,383.604156 59.114437,382.917236 
	C58.771561,382.464752 58.396633,382.197845 58.019821,381.962769 
	C58.017937,381.994568 58.066143,381.952820 57.960751,381.664307 
	C57.216503,380.933960 56.577648,380.492126 55.938789,380.050323 
	C55.938782,380.050323 55.985180,379.999451 55.882973,379.789673 
	C55.506771,379.399506 55.232777,379.219116 54.958786,379.038727 
	C54.958790,379.038727 54.991421,378.998962 55.019730,378.629211 
	C53.346958,375.518585 51.645878,372.777740 49.944794,370.036926 
	C49.944790,370.036926 49.995472,369.997864 49.953506,369.723206 
	C49.583260,368.969666 49.254982,368.490845 48.926704,368.011993 
	C48.926701,368.011993 48.999779,368.013672 49.006622,367.670105 
	C48.326164,366.218781 47.638855,365.111023 46.951546,364.003296 
	C46.951542,364.003296 46.999077,363.994110 46.967537,363.715942 
	C46.594696,362.958252 46.253395,362.478729 45.912094,361.999176 
	C45.912094,361.999176 45.987770,362.001465 45.965958,361.654633 
	C44.948734,358.670502 43.894287,356.053680 42.970394,353.391571 
	C41.137581,348.110504 41.765358,347.126862 47.258846,347.085815 
	C56.756779,347.014832 66.255661,347.073334 75.754143,347.073029 
	C105.249657,347.072052 134.745239,347.041534 164.240509,347.126953 
	C166.262772,347.132843 169.751663,347.550323 170.055573,348.542786 
	C171.576416,353.509277 173.394608,358.831055 172.954224,363.838501 
	C172.406738,370.063599 173.561646,374.948944 177.843582,379.285797 
	C180.608917,382.086639 181.187408,384.981598 177.478729,387.895020 
	C145.009674,387.907379 113.004501,387.910156 80.633957,387.732483 
	C74.182503,387.347412 68.096413,387.142792 62.002064,386.965546 
	C61.993797,386.992920 62.048382,386.976013 61.932392,386.764923 
	C61.622742,386.291260 61.384888,386.077972 60.734730,385.859863 
	C60.119137,385.822510 59.871655,385.839294 59.624172,385.856049 
z"/>
<path fill="#EF1E27" opacity="1.000000" stroke="none" 
	d="
M132.065323,258.782196 
	C136.340683,264.015442 140.628082,269.238983 144.875549,274.494781 
	C145.385239,275.125427 146.036530,275.941711 146.015976,276.654449 
	C145.808517,283.844788 149.072128,289.976410 151.690582,296.621460 
	C137.041382,296.930054 122.524986,296.886902 107.163475,296.612274 
	C97.525558,296.217377 88.732796,295.941040 79.939941,295.938019 
	C75.509705,295.936462 71.079308,296.430603 66.648979,296.700623 
	C58.176739,296.766998 49.704552,296.841095 41.232239,296.896393 
	C37.030697,296.923828 32.828926,296.916687 28.207758,296.449768 
	C27.228439,285.397095 26.668617,274.819824 26.253773,264.011047 
	C26.347984,263.085266 26.297220,262.390991 26.242970,261.451508 
	C26.239485,261.206299 26.182028,260.719238 26.182028,260.719238 
	C26.182028,260.719238 26.116343,260.488525 26.330780,260.052917 
	C27.344357,255.728943 29.920790,255.015808 33.550003,255.039795 
	C54.511959,255.178223 75.475372,255.140579 96.438141,255.092499 
	C107.411987,255.067337 118.385506,254.898972 129.359177,254.795288 
	C129.958954,255.528198 130.558746,256.261139 131.254303,257.540100 
	C131.588501,258.318176 131.826904,258.550201 132.065323,258.782196 
z"/>
<path fill="#ED212A" opacity="1.000000" stroke="none" 
	d="
M126.887505,162.176392 
	C127.595909,163.952972 128.512405,165.677200 128.974792,167.515656 
	C130.536270,173.723938 133.425735,179.063416 139.116211,183.271484 
	C140.872131,184.934555 142.033340,186.403870 143.194550,187.873184 
	C142.641357,188.807053 142.259857,189.918518 141.507278,190.646164 
	C136.371353,195.611877 131.157425,200.496918 125.735809,205.690430 
	C123.790771,205.633850 122.079376,205.004227 120.366272,204.999557 
	C95.720673,204.932343 71.074837,204.949234 46.429062,204.946014 
	C44.114071,204.945709 41.799080,204.945984 38.500462,204.945984 
	C44.408077,189.310806 51.725441,175.332092 61.941692,162.325378 
	C84.116295,162.199524 105.501900,162.187958 126.887505,162.176392 
z"/>
<path fill="#EB232B" opacity="1.000000" stroke="none" 
	d="
M234.374542,437.142700 
	C239.980209,443.658264 240.934052,451.666992 240.702942,459.822327 
	C240.618179,462.813354 239.141754,465.764984 237.943146,468.919373 
	C236.043106,469.060669 234.500046,469.017151 232.082367,468.930603 
	C223.103226,468.925110 214.998718,468.962616 206.894196,469.000122 
	C186.441315,469.159668 167.031494,463.984253 148.317444,456.452881 
	C137.354218,452.040863 127.056038,445.976349 116.332626,439.919769 
	C118.377289,438.820465 120.547638,438.141998 122.718781,438.139465 
	C159.187607,438.096527 195.656509,438.137939 232.125397,438.160645 
	C232.809952,437.889679 233.494522,437.618774 234.374542,437.142700 
z"/>
<path fill="#EC222A" opacity="1.000000" stroke="none" 
	d="
M294.963562,97.063431 
	C292.119385,102.017891 288.961670,106.954384 285.011414,111.946091 
	C267.343781,111.977646 250.468719,111.954002 233.593643,111.930351 
	C228.856461,101.867874 224.119293,91.805397 219.477417,81.385017 
	C230.670746,82.334549 241.792969,83.468216 252.858398,85.009705 
	C260.399841,86.060287 268.019501,87.128693 275.312927,89.209824 
	C281.962524,91.107231 288.219849,94.379295 294.963562,97.063431 
z"/>
<path fill="#E7242D" opacity="1.000000" stroke="none" 
	d="
M192.436890,82.991516 
	C194.393921,91.371857 196.114716,99.812286 197.503586,108.306992 
	C197.622726,109.035728 195.595352,110.834373 194.468094,110.924629 
	C189.334641,111.335632 184.166885,111.362839 179.010437,111.407532 
	C177.894485,111.417198 176.525467,111.254860 175.694870,110.619904 
	C168.314667,104.977989 161.029388,99.211899 153.748932,93.156738 
	C159.127686,91.103951 164.398422,89.073914 169.837921,87.723846 
	C177.195038,85.897850 184.681732,84.593910 192.436890,82.991516 
z"/>
<path fill="#272E4C" opacity="1.000000" stroke="none" 
	d="
M386.883728,135.685654 
	C383.641022,134.478851 380.243774,132.975739 376.183807,131.179398 
	C377.330963,134.013672 378.151550,136.041092 378.682861,138.322601 
	C374.286499,134.563858 370.375916,130.322739 366.032654,126.584282 
	C356.107910,118.041626 345.971497,109.744911 335.821655,101.043182 
	C335.117584,100.163689 334.512909,99.589302 333.938232,99.034027 
	C333.968262,99.053131 333.915497,99.101593 333.944336,98.687012 
	C334.051605,97.719482 334.130035,97.166527 334.208496,96.613579 
	C335.596619,96.966545 336.984741,97.319511 338.855469,98.049042 
	C339.625000,98.607010 339.911957,98.788422 340.198883,98.969833 
	C341.260773,99.557365 342.322662,100.144897 343.834167,101.055305 
	C344.576569,101.576950 344.869415,101.775726 345.162231,101.974503 
	C354.155457,108.521690 363.331848,114.835754 372.073151,121.703552 
	C377.310059,125.818031 381.866760,130.798233 386.883728,135.685654 
z"/>
<path fill="#B63741" opacity="1.000000" stroke="none" 
	d="
M177.942596,387.885437 
	C181.187408,384.981598 180.608917,382.086639 177.843582,379.285797 
	C173.561646,374.948944 172.406738,370.063599 172.954224,363.838501 
	C173.394608,358.831055 171.576416,353.509277 170.055573,348.542786 
	C169.751663,347.550323 166.262772,347.132843 164.240509,347.126953 
	C134.745239,347.041534 105.249657,347.072052 75.754143,347.073029 
	C66.255661,347.073334 56.756779,347.014832 47.258846,347.085815 
	C41.765358,347.126862 41.137581,348.110504 42.970394,353.391571 
	C43.894287,356.053680 44.948734,358.670502 45.953499,361.690369 
	C41.781399,357.677216 39.842583,352.332397 40.117966,346.206726 
	C82.386139,346.040100 123.860466,346.064911 165.334747,346.034210 
	C167.601044,346.032532 169.867004,345.567566 172.133118,345.318237 
	C172.133118,345.318237 172.387192,345.212372 172.521515,345.198425 
	C173.462509,349.823425 174.365356,354.448792 175.026108,359.108459 
	C175.272598,360.846710 175.199478,362.715729 174.845184,364.437225 
	C173.902924,369.015717 174.619797,373.204620 178.221222,376.229828 
	C182.513870,379.835693 183.145828,384.155090 181.823425,389.557556 
	C181.456940,389.819122 181.234207,389.617218 180.754303,388.916443 
	C179.600540,388.289948 178.771576,388.087708 177.942596,387.885437 
z"/>
<path fill="#232848" opacity="1.000000" stroke="none" 
	d="
M10.370197,264.761139 
	C9.288102,263.332703 8.456226,261.578400 7.316483,259.174866 
	C6.496715,260.621307 5.982543,261.528564 5.294805,262.686584 
	C5.808148,257.879700 6.226952,252.766861 7.253990,247.779266 
	C8.382215,242.300262 10.070591,236.936630 12.054543,231.391266 
	C13.338105,231.495209 14.082031,231.730621 14.825958,231.966019 
	C13.424111,242.789108 12.022265,253.612183 10.370197,264.761139 
z"/>
<path fill="#FFB5B5" opacity="1.000000" stroke="none" 
	d="
M171.668137,345.171051 
	C169.867004,345.567566 167.601044,346.032532 165.334747,346.034210 
	C123.860466,346.064911 82.386139,346.040100 40.441364,346.018646 
	C41.448967,345.670135 42.926735,345.034454 44.405128,345.032990 
	C86.671104,344.990906 128.937134,345.012543 171.668137,345.171051 
z"/>
<path fill="#D76263" opacity="1.000000" stroke="none" 
	d="
M177.478729,387.895020 
	C178.771576,388.087708 179.600540,388.289948 180.663757,388.705017 
	C141.978363,388.942566 103.058662,388.991791 64.139336,388.894928 
	C62.718712,388.891357 61.301651,387.455688 59.753551,386.271790 
	C59.871655,385.839294 60.119137,385.822510 60.854256,386.069214 
	C61.526562,386.602966 61.762054,386.817413 62.048382,386.976013 
	C62.048382,386.976013 61.993797,386.992920 62.332150,387.220703 
	C68.780113,387.603333 74.889717,387.758148 80.999329,387.912964 
	C113.004501,387.910156 145.009674,387.907379 177.478729,387.895020 
z"/>
<path fill="#FED2D3" opacity="1.000000" stroke="none" 
	d="
M231.956802,437.735565 
	C195.656509,438.137939 159.187607,438.096527 122.718781,438.139465 
	C120.547638,438.141998 118.377289,438.820465 116.233063,439.596344 
	C115.771935,439.156830 115.284302,438.305328 114.539619,437.004974 
	C149.483093,437.004974 183.688934,436.993469 217.894730,437.018494 
	C222.525955,437.021912 227.157059,437.208649 231.956802,437.735565 
z"/>
<path fill="#C15353" opacity="1.000000" stroke="none" 
	d="
M129.328827,254.509064 
	C118.385506,254.898972 107.411987,255.067337 96.438141,255.092499 
	C75.475372,255.140579 54.511959,255.178223 33.550003,255.039795 
	C29.920790,255.015808 27.344357,255.728943 26.339388,259.933258 
	C26.133560,258.376068 26.133560,256.502899 26.133560,253.996811 
	C27.998699,253.996811 29.750162,253.996735 31.501627,253.996826 
	C62.056717,253.998291 92.611809,254.003296 123.166893,253.990433 
	C124.651978,253.989807 126.136986,253.832260 127.886917,253.390945 
	C128.534027,253.430344 128.916245,253.826584 129.328827,254.509064 
z"/>
<path fill="#33374E" opacity="1.000000" stroke="none" 
	d="
M334.095398,96.306564 
	C334.130035,97.166527 334.051605,97.719482 333.609680,98.565971 
	C328.093414,96.048859 323.023254,93.067154 317.744995,90.516106 
	C315.775696,89.564331 313.320465,89.618103 311.086792,89.213379 
	C311.443207,86.617233 311.799652,84.021080 312.470337,81.247833 
	C312.432770,87.528595 318.516724,86.688332 321.827606,88.894615 
	C325.726196,91.492523 329.917816,93.650703 334.095398,96.306564 
z"/>
<path fill="#272E4C" opacity="1.000000" stroke="none" 
	d="
M445.006409,240.592529 
	C443.745972,238.598083 442.158051,236.312897 441.255676,233.783142 
	C438.478271,225.996887 435.886902,218.141052 433.406830,210.254532 
	C432.876587,208.568466 433.119781,206.639206 433.020508,204.385345 
	C437.020386,216.029114 441.006470,228.109512 445.006409,240.592529 
z"/>
<path fill="#272E4C" opacity="1.000000" stroke="none" 
	d="
M433.065674,203.590607 
	C431.630432,203.156784 429.488770,202.708923 428.869659,201.488617 
	C425.264984,194.383423 421.977234,187.115280 418.680939,179.857452 
	C417.942261,178.231003 417.596649,176.425995 417.062042,174.315582 
	C421.405212,181.447922 425.807068,188.939331 430.075073,196.506195 
	C431.273041,198.630051 432.077576,200.975784 433.065674,203.590607 
z"/>
<path fill="#262B45" opacity="1.000000" stroke="none" 
	d="
M27.783558,109.748901 
	C26.378038,110.900993 24.822237,111.774796 23.077991,112.938469 
	C17.792652,111.053879 12.695759,108.879417 7.598866,106.704964 
	C7.758673,106.071884 7.918479,105.438797 8.078286,104.805717 
	C14.596618,106.360680 21.114948,107.915642 27.783558,109.748901 
z"/>
<path fill="#DD2D35" opacity="1.000000" stroke="none" 
	d="
M125.632034,105.853241 
	C127.731323,107.542030 129.485001,109.354897 131.236420,111.533218 
	C126.809280,113.644440 122.464348,113.667259 116.799507,110.924614 
	C120.214096,108.934143 122.750259,107.455734 125.632034,105.853241 
z"/>
<path fill="#FCD9DB" opacity="1.000000" stroke="none" 
	d="
M127.082336,161.916595 
	C105.501900,162.187958 84.116295,162.199524 62.242416,162.207275 
	C63.198414,161.811829 64.640465,161.088394 66.087303,161.078659 
	C85.948845,160.945160 105.811035,160.910034 125.941765,160.506653 
	C126.566025,160.660629 126.921593,161.158722 127.082336,161.916595 
z"/>
<path fill="#272E4C" opacity="1.000000" stroke="none" 
	d="
M413.461548,160.101944 
	C413.189789,157.062775 411.701752,155.713974 408.285797,155.979980 
	C413.386230,153.928314 418.898285,151.890121 424.410339,149.851944 
	C424.737671,150.543182 425.065002,151.234421 425.392334,151.925659 
	C421.533813,154.652023 417.675293,157.378387 413.461548,160.101944 
z"/>
<path fill="#313449" opacity="1.000000" stroke="none" 
	d="
M15.061872,231.641998 
	C14.082031,231.730621 13.338105,231.495209 12.325886,231.138580 
	C13.975200,224.543976 15.892808,218.070587 18.179279,211.425110 
	C18.748217,211.502502 18.904314,211.776993 19.016438,212.076492 
	C18.696882,214.213409 18.463598,216.367615 18.039660,218.483612 
	C17.180340,222.772690 16.217783,227.041061 15.061872,231.641998 
z"/>
<path fill="#272E4C" opacity="1.000000" stroke="none" 
	d="
M450.750854,279.482056 
	C449.982300,277.655975 448.906128,275.443573 448.622253,273.133789 
	C447.597717,264.797150 446.839874,256.427673 445.973450,247.631439 
	C447.203033,252.726318 448.725922,258.216095 449.593018,263.807587 
	C450.371979,268.830688 450.430450,273.965515 450.750854,279.482056 
z"/>
<path fill="#272E4C" opacity="1.000000" stroke="none" 
	d="
M400.927063,151.659088 
	C394.346130,148.694443 390.862122,142.550964 387.042938,136.324951 
	C391.646332,141.077087 396.274261,146.193298 400.927063,151.659088 
z"/>
<path fill="#D96F73" opacity="1.000000" stroke="none" 
	d="
M25.767231,260.934265 
	C26.182028,260.719238 26.239485,261.206299 26.184261,261.875000 
	C26.122288,263.109985 26.115541,263.676270 26.108795,264.242554 
	C26.668617,274.819824 27.228439,285.397095 27.826077,296.362915 
	C26.881554,294.024109 25.127048,291.316101 25.058167,288.565857 
	C24.829477,279.435181 25.207247,270.289307 25.767231,260.934265 
z"/>
<path fill="#EA7A7F" opacity="1.000000" stroke="none" 
	d="
M67.135727,296.830261 
	C71.079308,296.430603 75.509705,295.936462 79.939941,295.938019 
	C88.732796,295.941040 97.525558,296.217377 106.704170,296.550995 
	C93.934151,296.800781 80.778313,296.880310 67.135727,296.830261 
z"/>
<path fill="#C9C9D4" opacity="1.000000" stroke="none" 
	d="
M89.286591,229.411072 
	C99.597443,229.091568 110.071388,229.173141 120.769249,229.624603 
	C110.478668,229.933701 99.964180,229.872925 89.286591,229.411072 
z"/>
<path fill="#5C5E62" opacity="1.000000" stroke="none" 
	d="
M19.347324,211.926895 
	C18.904314,211.776993 18.748217,211.502502 18.372536,211.092987 
	C20.033213,206.320618 21.869499,201.708298 23.705786,197.095978 
	C24.223423,197.296707 24.741060,197.497452 25.258698,197.698196 
	C23.398535,202.391220 21.538374,207.084259 19.347324,211.926895 
z"/>
<path fill="#272E4C" opacity="1.000000" stroke="none" 
	d="
M417.001740,173.609116 
	C412.261414,171.674545 409.329651,167.187958 409.851868,162.280884 
	C412.354889,165.764191 414.637756,169.515411 417.001740,173.609116 
z"/>
<path fill="#E89698" opacity="1.000000" stroke="none" 
	d="
M207.095947,469.396790 
	C214.998718,468.962616 223.103226,468.925110 231.688126,468.919159 
	C230.011871,469.301361 227.858673,469.923645 225.697937,469.951019 
	C219.566162,470.028656 213.431335,469.863190 207.095947,469.396790 
z"/>
<path fill="#B63741" opacity="1.000000" stroke="none" 
	d="
M49.954254,370.402039 
	C51.645878,372.777740 53.346958,375.518585 54.994919,378.644653 
	C53.282433,376.275604 51.623070,373.521393 49.954254,370.402039 
z"/>
<path fill="#272E4C" opacity="1.000000" stroke="none" 
	d="
M405.733643,155.937302 
	C403.680267,158.144043 403.600983,158.092941 402.074463,153.288605 
	C403.156891,153.870361 404.303833,154.803116 405.733643,155.937302 
z"/>
<path fill="#232848" opacity="1.000000" stroke="none" 
	d="
M3.692392,273.218262 
	C3.812771,276.348846 3.659149,279.795563 3.310742,283.587402 
	C3.216768,280.466492 3.317579,277.000427 3.692392,273.218262 
z"/>
<path fill="#232848" opacity="1.000000" stroke="none" 
	d="
M3.100293,299.529053 
	C3.260938,302.149323 3.375956,305.212921 3.297029,308.611481 
	C3.086945,305.955078 3.070806,302.963715 3.100293,299.529053 
z"/>
<path fill="#272E4C" opacity="1.000000" stroke="none" 
	d="
M445.799377,245.578369 
	C445.474487,244.516327 445.222412,243.083420 444.988831,241.316681 
	C445.295624,242.391068 445.583862,243.799286 445.799377,245.578369 
z"/>
<path fill="#B63741" opacity="1.000000" stroke="none" 
	d="
M46.989712,364.343689 
	C47.638855,365.111023 48.326164,366.218781 48.977493,367.692810 
	C48.303642,366.934082 47.665760,365.809113 46.989712,364.343689 
z"/>
<path fill="#232848" opacity="1.000000" stroke="none" 
	d="
M4.571264,265.100250 
	C4.790356,265.828430 4.767416,266.791840 4.482628,267.868011 
	C4.256932,267.098999 4.293082,266.217255 4.571264,265.100250 
z"/>
<path fill="#232848" opacity="1.000000" stroke="none" 
	d="
M3.059559,288.471741 
	C3.224062,289.821960 3.345521,291.591248 3.281966,293.653442 
	C3.070139,292.261139 3.043327,290.575989 3.059559,288.471741 
z"/>
<path fill="#272E4C" opacity="1.000000" stroke="none" 
	d="
M410.375244,162.048401 
	C410.825714,161.415482 411.596497,160.753204 412.704834,160.080139 
	C412.260071,160.719254 411.477814,161.369156 410.375244,162.048401 
z"/>
<path fill="#D76263" opacity="1.000000" stroke="none" 
	d="
M59.082382,383.102814 
	C59.125294,383.604156 59.168198,384.105530 59.176266,384.986572 
	C58.414684,384.461121 57.687943,383.556030 57.172523,382.319763 
	C57.611279,381.976715 57.838711,381.964752 58.066143,381.952820 
	C58.066143,381.952820 58.017937,381.994568 58.147572,382.198364 
	C58.545593,382.635712 58.813984,382.869263 59.082382,383.102814 
z"/>
<path fill="#B63741" opacity="1.000000" stroke="none" 
	d="
M57.960751,381.664307 
	C57.838711,381.964752 57.611279,381.976715 57.040970,381.987854 
	C56.435905,381.535187 56.173710,381.083252 55.925156,380.340820 
	C56.577648,380.492126 57.216503,380.933960 57.960751,381.664307 
z"/>
<path fill="#262B45" opacity="1.000000" stroke="none" 
	d="
M31.885849,110.733658 
	C31.529726,110.797699 30.999722,110.622002 30.250343,110.271202 
	C30.591303,110.228714 31.151636,110.361320 31.885849,110.733658 
z"/>
<path fill="#B63741" opacity="1.000000" stroke="none" 
	d="
M48.932087,368.333466 
	C49.254982,368.490845 49.583260,368.969666 49.935265,369.746399 
	C49.618484,369.581146 49.277977,369.118042 48.932087,368.333466 
z"/>
<path fill="#B63741" opacity="1.000000" stroke="none" 
	d="
M45.933342,362.321960 
	C46.253395,362.478729 46.594696,362.958252 46.965530,363.739990 
	C46.648243,363.576416 46.301418,363.110596 45.933342,362.321960 
z"/>
<path fill="#B63741" opacity="1.000000" stroke="none" 
	d="
M54.995548,379.309692 
	C55.232777,379.219116 55.506771,379.399506 55.869667,379.815552 
	C55.649818,379.894379 55.341064,379.737549 54.995548,379.309692 
z"/>
<path fill="#232848" opacity="1.000000" stroke="none" 
	d="
M3.089895,297.260956 
	C3.303659,297.235474 3.361437,297.470032 3.204873,297.841553 
	C3.133576,297.948608 3.076955,297.491089 3.089895,297.260956 
z"/>
<path fill="#272E4C" opacity="1.000000" stroke="none" 
	d="
M406.776794,155.913879 
	C406.838959,156.031113 406.482819,156.021301 406.305847,156.028870 
	C406.128876,156.036438 406.368896,155.737961 406.368896,155.737961 
	C406.368896,155.737961 406.714661,155.796646 406.776794,155.913879 
z"/>
<path fill="#33374E" opacity="1.000000" stroke="none" 
	d="
M345.061951,101.701523 
	C344.869415,101.775726 344.576569,101.576950 344.115479,101.171104 
	C344.285339,101.118866 344.623505,101.273705 345.061951,101.701523 
z"/>
<path fill="#33374E" opacity="1.000000" stroke="none" 
	d="
M340.085358,98.717545 
	C339.911957,98.788422 339.625000,98.607010 339.170563,98.233124 
	C339.325989,98.182182 339.648895,98.323715 340.085358,98.717545 
z"/>
<path fill="#000000" opacity="1.000000" stroke="none" 
	d="
M178.318634,323.879059 
	C174.012009,325.490540 169.754791,327.254883 165.383698,328.666687 
	C161.666473,329.867249 159.545120,328.547180 160.016586,324.311981 
	C161.116837,314.428040 162.195374,304.541656 163.327637,294.661377 
	C164.214813,286.919769 163.318771,279.585754 156.862717,274.418518 
	C153.759583,271.934875 153.497238,269.115295 154.361816,266.085419 
	C157.035263,256.716461 160.034409,247.440399 162.912506,238.129959 
	C163.871292,235.028381 164.846405,231.931870 166.064377,228.031418 
	C177.562958,238.983795 190.697144,245.523468 206.177032,248.911011 
	C218.573593,252.258774 230.279099,255.439178 241.821014,259.131073 
	C244.408875,259.958893 247.450394,262.115082 248.505768,264.459686 
	C251.391418,270.870453 253.551544,277.641296 255.574799,284.396606 
	C257.313141,290.200653 259.907837,296.193115 255.948746,302.140930 
	C252.805283,306.863434 250.084442,312.064423 246.133209,316.008270 
	C239.285126,322.843597 237.806564,331.017181 239.088257,339.744141 
	C241.192047,354.068878 240.264053,367.620972 232.366684,380.221588 
	C224.833969,392.240387 213.699188,398.842926 200.292404,402.211090 
	C193.300568,399.920532 191.031937,394.261322 189.940796,386.957458 
	C190.015808,381.623657 192.621384,378.638580 196.004700,375.983795 
	C201.224960,371.887543 206.305115,367.612732 211.444687,363.413696 
	C211.082504,362.775696 210.720322,362.137726 210.358139,361.499725 
	C204.897507,364.010345 199.436874,366.520966 193.976242,369.031586 
	C190.515976,372.913544 186.183838,371.490326 182.547028,370.016479 
	C181.646454,369.651550 181.453720,364.007446 182.824020,362.412445 
	C184.801041,360.111267 188.364990,358.623260 191.496994,357.977295 
	C198.344177,356.565094 205.345764,355.901611 213.545425,354.756104 
	C201.789276,349.900940 191.240036,345.544189 179.599030,340.736603 
	C181.944717,338.892212 184.232910,337.146423 186.461731,335.327881 
	C189.707581,332.679535 193.301666,330.321777 196.030060,327.211060 
	C199.216965,323.577637 198.024643,320.208344 193.215485,317.686676 
	C187.744110,309.952118 182.772583,302.563599 177.111877,294.150848 
	C177.494064,299.394226 177.881332,303.118927 178.010727,306.852570 
	C178.207336,312.524811 178.224960,318.203247 178.318634,323.879059 
M187.416306,284.767822 
	C193.516998,289.191559 199.488266,293.959503 208.034149,292.823029 
	C203.823944,285.200806 203.783173,284.025818 209.048355,281.729279 
	C211.248596,280.769562 214.155594,281.306488 216.735336,281.377563 
	C219.021378,281.440491 221.312851,282.083099 223.577972,281.973694 
	C229.095474,281.707153 236.924225,274.634216 237.772568,269.783569 
	C238.643265,268.775696 239.513962,267.767853 240.384659,266.760010 
	C236.867096,266.189545 233.992371,266.668915 231.100571,266.998230 
	C220.151672,268.244904 210.516449,264.301758 201.119934,259.375153 
	C192.510620,254.861313 181.046371,256.500427 173.833206,262.157501 
	C171.054565,264.336700 170.270828,266.737244 173.108994,269.608704 
	C177.846756,274.402069 182.475357,279.303375 187.416306,284.767822 
z"/>
<path fill="#A3AFB2" opacity="1.000000" stroke="none" 
	d="
M200.597870,402.389465 
	C213.699188,398.842926 224.833969,392.240387 232.366684,380.221588 
	C240.264053,367.620972 241.192047,354.068878 239.088257,339.744141 
	C237.806564,331.017181 239.285126,322.843597 246.133209,316.008270 
	C250.084442,312.064423 252.805283,306.863434 255.948746,302.140930 
	C259.907837,296.193115 257.313141,290.200653 255.574799,284.396606 
	C253.551544,277.641296 251.391418,270.870453 248.505768,264.459686 
	C247.450394,262.115082 244.408875,259.958893 241.821014,259.131073 
	C230.279099,255.439178 218.573593,252.258774 206.551697,248.876678 
	C207.758041,248.573624 209.354065,247.978073 210.919479,248.049881 
	C224.123047,248.655487 237.153992,247.826309 249.872055,243.902451 
	C250.944000,243.571732 252.106750,243.535263 253.591797,243.305771 
	C257.449829,259.022797 268.406067,268.325287 281.791046,275.744263 
	C290.990417,280.843262 298.972900,287.334229 299.555908,299.477295 
	C299.997620,299.457794 300.439362,299.438324 300.881073,299.418823 
	C303.188324,296.081207 305.409973,292.680176 307.823547,289.421295 
	C311.168854,284.904358 314.173462,279.985291 318.195312,276.152893 
	C324.897522,269.766418 334.501465,272.005646 338.852051,281.096802 
	C338.274261,288.004120 338.252777,294.292023 336.896484,300.277466 
	C334.059937,312.795441 328.256378,317.349426 315.858948,318.052155 
	C315.539154,318.070312 315.227905,318.238190 314.864777,317.956238 
	C317.375092,315.644409 319.681854,313.144501 322.536011,311.881439 
	C333.573151,306.997040 334.281860,304.252625 332.483856,291.369598 
	C332.136566,288.881409 329.169067,285.778839 326.712036,284.890045 
	C324.901459,284.235138 321.381836,286.158966 319.632385,287.930054 
	C316.046600,291.560211 313.101746,295.831390 309.962585,299.892395 
	C307.257172,303.392303 305.383118,307.055695 306.521210,311.828979 
	C306.869812,313.291138 305.635071,315.130768 304.926758,316.496887 
	C301.104309,316.544037 298.883209,318.041656 297.427032,321.843414 
	C295.531647,326.791748 293.762054,331.556458 294.397858,336.924652 
	C292.341888,343.163147 290.413971,349.447510 288.198456,355.628815 
	C285.250824,363.852814 279.535919,369.414642 271.750580,373.460388 
	C258.932709,380.121429 246.469803,387.462006 233.755890,394.328400 
	C228.792328,397.009064 223.660568,399.451996 218.412796,401.512695 
	C212.781631,403.723969 206.899139,404.914795 200.597870,402.389465 
z"/>
<path fill="#000000" opacity="1.000000" stroke="none" 
	d="
M311.234436,89.552116 
	C313.320465,89.618103 315.775696,89.564331 317.744995,90.516106 
	C323.023254,93.067154 328.093414,96.048859 333.580872,98.980545 
	C333.915497,99.101593 333.968262,99.053131 333.954834,99.384903 
	C334.601257,100.260544 335.261169,100.804428 335.921051,101.348297 
	C345.971497,109.744911 356.107910,118.041626 366.032654,126.584282 
	C370.375916,130.322739 374.286499,134.563858 378.699432,138.686707 
	C383.571533,145.177460 388.137756,151.558228 393.234131,158.679855 
	C388.166687,160.424133 383.485260,162.035553 378.274658,163.455612 
	C374.606812,162.905746 371.468109,162.547256 368.329376,162.188782 
	C361.316681,156.450073 354.524658,150.412094 347.240692,145.041275 
	C335.699432,136.531403 322.332642,131.840973 308.712708,127.840233 
	C308.263641,127.708328 307.866180,127.400757 307.056000,126.966949 
	C307.671112,122.668312 308.296722,118.296219 309.438660,113.480118 
	C312.305511,112.978615 314.656067,112.921120 317.322510,112.814774 
	C318.341217,111.966103 319.044098,111.166298 320.065826,110.003632 
	C317.178070,108.536438 314.651123,107.252563 312.013000,105.688004 
	C311.312775,104.867676 310.723724,104.328026 310.134674,103.788376 
	C310.550476,99.155876 310.966248,94.523369 311.234436,89.552116 
z"/>
<path fill="#000000" opacity="1.000000" stroke="none" 
	d="
M205.080963,226.091217 
	C200.105286,222.608704 195.290222,218.861450 190.109024,215.717651 
	C184.855087,212.529694 179.305664,209.796432 173.734055,207.187820 
	C172.399200,206.562836 169.907349,206.553986 168.894333,207.398026 
	C162.375137,212.829910 152.642578,213.025070 147.564926,220.775604 
	C142.893387,227.906281 140.562515,235.593521 141.000412,244.127609 
	C141.122147,246.499969 141.018951,248.883865 140.298080,251.317184 
	C136.047913,245.601685 134.140213,239.156342 134.157837,232.487259 
	C134.172348,226.988968 134.880890,221.243652 136.610428,216.050217 
	C140.279510,205.032623 149.720337,202.193436 160.098709,200.945511 
	C162.737320,200.628220 165.264114,199.092072 167.761124,197.940002 
	C175.394531,194.418045 182.679886,189.111099 190.674545,187.659546 
	C201.030930,185.779221 212.068802,185.374252 222.858002,190.223618 
	C225.306000,195.326935 227.304535,200.017639 229.205933,204.747406 
	C232.360336,212.594116 227.315384,220.502625 220.602875,222.816635 
	C215.642151,224.526749 210.269882,225.043060 205.080963,226.091217 
z"/>
<path fill="#000000" opacity="1.000000" stroke="none" 
	d="
M388.125183,178.576355 
	C391.991272,175.677490 395.857422,172.778610 400.168213,169.546310 
	C423.984314,209.902786 433.021942,252.479996 428.437378,298.298706 
	C423.324554,294.788574 418.284851,291.328644 413.033783,287.288635 
	C413.198761,282.967651 413.898590,279.224487 413.873566,275.486206 
	C413.838379,270.232727 412.964508,264.979584 413.021851,259.732574 
	C413.063782,255.895401 411.608063,254.644852 408.033844,254.984940 
	C406.733124,255.108673 405.396332,254.853516 404.076019,254.771225 
	C403.138153,247.261383 402.538818,239.689194 401.169983,232.258728 
	C399.715912,224.365295 397.524689,216.608063 395.676514,208.786346 
	C395.452393,207.837753 395.359802,206.858063 395.621582,205.442810 
	C397.322876,204.992828 398.608856,204.992828 400.841095,204.992828 
	C396.371765,195.708099 392.248474,187.142227 388.125183,178.576355 
z"/>
<path fill="#000000" opacity="1.000000" stroke="none" 
	d="
M215.314667,171.233765 
	C205.669449,171.203934 195.977463,170.601486 186.398575,171.383804 
	C181.549118,171.779861 176.914871,174.707748 172.158463,176.421982 
	C171.029266,176.828964 169.800232,176.958954 168.309311,177.120239 
	C168.001495,177.024124 168.014023,177.051346 168.152390,176.684845 
	C169.146057,169.348969 167.602966,162.908295 164.014297,156.918549 
	C160.898239,150.761749 157.782166,144.604935 154.230560,137.587570 
	C157.048676,136.222855 160.091309,134.236694 163.424820,133.371902 
	C164.884521,132.993210 167.522797,134.446411 168.627029,135.852295 
	C175.361847,144.427124 180.191803,154.064896 183.600739,164.420990 
	C184.133041,166.038086 184.819992,167.604294 185.904129,170.404709 
	C188.411835,162.135223 185.867554,155.699722 184.142380,149.292175 
	C182.432587,142.941635 180.157944,136.743164 177.690842,129.117355 
	C183.060760,129.117355 187.917877,129.117355 193.272156,129.499939 
	C195.839951,132.595795 197.910583,135.309036 199.981201,138.022293 
	C199.981201,138.022293 200.004288,138.004410 200.009460,138.305069 
	C200.331375,139.085739 200.648087,139.565765 200.964813,140.045776 
	C200.964813,140.045776 200.977951,139.991150 201.035706,140.373077 
	C202.068161,142.821136 203.042831,144.887283 204.017502,146.953445 
	C204.025406,147.124496 204.033295,147.295532 203.985687,148.117096 
	C205.327637,154.315201 206.725067,159.862762 208.361679,166.359772 
	C210.619278,156.442078 210.366394,147.652344 206.964081,139.020096 
	C206.909515,138.572311 206.854965,138.124527 206.836456,136.959229 
	C206.872498,134.661026 206.872498,133.080322 206.872498,131.373444 
	C207.719955,131.259674 208.394485,130.992661 208.985962,131.117905 
	C213.315598,132.034668 217.628601,133.030075 222.067230,134.350113 
	C223.034637,135.884659 224.582123,137.050705 224.614929,138.257935 
	C224.827118,146.064514 225.614502,154.034409 224.320587,161.628235 
	C223.664261,165.480209 222.206589,171.755402 215.314667,171.233765 
z"/>
<path fill="#A0ABB1" opacity="1.000000" stroke="none" 
	d="
M215.643097,171.354370 
	C222.206589,171.755402 223.664261,165.480209 224.320587,161.628235 
	C225.614502,154.034409 224.827118,146.064514 224.614929,138.257935 
	C224.582123,137.050705 223.034637,135.884659 222.441925,134.266052 
	C223.461395,133.834763 224.226578,133.836975 224.991745,133.839203 
	C230.023682,140.511200 231.029800,148.476257 231.932434,156.380569 
	C232.394409,160.426178 232.013428,164.568024 232.478485,168.693207 
	C236.609406,159.074326 237.501709,149.015839 236.473694,138.692551 
	C248.523865,139.972351 254.382904,145.027832 255.907028,155.864609 
	C256.935028,163.173813 257.256927,170.582336 257.880127,177.778397 
	C262.646759,170.195084 262.890625,161.030853 263.774353,150.768265 
	C270.042664,154.873932 275.582550,158.342239 280.891113,162.134323 
	C281.795044,162.780075 282.214935,164.900726 281.992737,166.190887 
	C280.899048,172.541245 279.466949,178.832550 278.269409,185.166473 
	C278.023743,186.465988 278.270111,187.858521 278.579895,189.554962 
	C277.248505,192.594482 275.626892,195.287216 274.005280,197.979950 
	C259.748566,188.446060 245.206726,179.450684 228.547775,174.610199 
	C224.402023,173.405594 220.166031,172.511673 215.643097,171.354370 
z"/>
<path fill="#A0ACB2" opacity="1.000000" stroke="none" 
	d="
M274.230499,198.225418 
	C275.626892,195.287216 277.248505,192.594482 278.960266,189.577026 
	C282.920471,182.753632 286.790527,176.254959 291.016510,169.158630 
	C295.209564,172.385666 299.854401,175.736420 304.176971,179.461182 
	C305.132141,180.284256 305.325562,182.456482 305.223999,183.963974 
	C304.640198,192.629501 301.256561,200.266037 296.395172,207.475235 
	C304.769958,203.400360 309.091644,195.612228 313.831543,187.565796 
	C318.329224,191.461685 322.533691,194.909866 326.448181,198.660706 
	C327.214111,199.394623 327.475067,201.669022 326.917114,202.607559 
	C323.141754,208.957840 319.083649,215.140015 314.647095,221.790436 
	C311.325867,222.846954 308.474518,223.489594 305.623199,224.132233 
	C295.234039,215.578445 284.844879,207.024673 274.230499,198.225418 
z"/>
<path fill="#A2ADB2" opacity="1.000000" stroke="none" 
	d="
M205.178986,226.418411 
	C210.269882,225.043060 215.642151,224.526749 220.602875,222.816635 
	C227.315384,220.502625 232.360336,212.594116 229.205933,204.747406 
	C227.304535,200.017639 225.306000,195.326935 223.152588,190.320435 
	C224.549042,190.089310 226.307220,189.738083 227.714310,190.286926 
	C245.716095,197.308655 261.555847,207.906418 276.421478,220.075668 
	C276.626770,220.243729 276.630402,220.658142 276.980225,221.729797 
	C256.757935,226.412720 237.482712,236.175232 215.825745,231.004074 
	C212.178497,230.133209 208.786789,228.192169 205.178986,226.418411 
z"/>
<path fill="#000000" opacity="1.000000" stroke="none" 
	d="
M354.392487,312.807373 
	C360.289642,317.434204 365.951996,321.824799 372.109161,326.599091 
	C365.796631,337.339020 366.532593,349.673767 369.788544,362.189392 
	C370.034729,363.135651 370.018250,364.173157 369.989105,365.164276 
	C369.847534,369.977234 368.404907,373.779785 363.251892,375.563721 
	C358.003876,377.380615 355.221985,373.643951 353.144836,370.619415 
	C345.798981,359.923279 343.891541,347.598938 345.371857,335.007263 
	C346.325256,326.897400 348.858734,318.973297 350.843872,310.264709 
	C352.440765,311.376160 353.299225,311.973633 354.392487,312.807373 
z"/>
<path fill="#9EAAB1" opacity="1.000000" stroke="none" 
	d="
M305.792297,224.431549 
	C308.474518,223.489594 311.325867,222.846954 314.540497,222.115479 
	C318.755798,219.694901 322.897705,217.722458 326.370392,214.920609 
	C329.280884,212.572311 331.410156,209.255737 334.406677,205.759628 
	C337.617188,208.781097 340.942932,211.683075 343.929749,214.899750 
	C344.586792,215.607346 344.551758,217.765060 343.955200,218.682877 
	C341.890961,221.858902 339.430969,224.776901 337.137390,227.805069 
	C336.304749,228.904388 335.516632,230.037415 334.708221,231.155075 
	C335.110199,231.686417 335.512207,232.217743 335.914215,232.749084 
	C341.016083,229.596130 346.117950,226.443161 351.650940,223.023773 
	C354.797150,224.592697 354.508301,227.582306 353.438782,230.747452 
	C350.633270,239.050140 341.378479,246.118011 332.666992,246.308426 
	C331.079437,246.343109 329.159424,245.400406 327.909546,244.314331 
	C320.508972,237.883759 313.260803,231.277817 305.792297,224.431549 
z"/>
<path fill="#000000" opacity="1.000000" stroke="none" 
	d="
M143.503433,188.001419 
	C142.033340,186.403870 140.872131,184.934555 139.479797,183.267212 
	C138.117523,179.273605 136.986389,175.477997 135.825012,170.882904 
	C135.975540,168.209579 136.156281,166.335770 136.337036,164.461960 
	C136.922958,164.156464 137.508865,163.850983 138.094788,163.545486 
	C142.930679,168.866821 147.766556,174.188156 152.493103,179.389191 
	C154.538666,176.147491 150.526718,165.403839 145.073212,160.734756 
	C144.892181,160.514435 144.681137,160.328094 144.100983,159.774597 
	C139.535995,151.608734 139.721848,149.888428 145.285812,145.266953 
	C145.285812,145.266953 145.517715,145.132080 145.802261,145.400787 
	C148.370819,147.474106 150.654816,149.278732 152.938812,151.083359 
	C152.938812,151.083359 152.936127,151.007126 152.937073,151.394348 
	C154.270905,153.209167 155.603790,154.636765 156.936691,156.064377 
	C156.936691,156.064377 156.964828,156.023926 156.983429,156.369843 
	C157.983307,157.831940 158.964569,158.948120 159.945847,160.064285 
	C159.945847,160.064285 159.975296,160.001434 159.954590,160.383331 
	C162.627258,166.193924 165.320648,171.622635 168.014038,177.051346 
	C168.014023,177.051346 168.001495,177.024124 167.992157,177.012512 
	C164.502365,179.872589 161.401749,183.576874 157.436478,185.385834 
	C153.332047,187.258240 148.388702,187.291779 143.503433,188.001419 
z"/>
<path fill="#A1ACB2" opacity="1.000000" stroke="none" 
	d="
M295.087372,237.614029 
	C304.260834,241.082565 310.089447,248.919159 317.380890,254.836243 
	C317.926636,255.279099 317.943268,257.378021 317.398834,257.995331 
	C314.145813,261.683716 310.710846,265.219818 307.179840,268.645111 
	C306.707581,269.103241 305.166626,268.972870 304.426086,268.563049 
	C295.651154,263.706787 287.276886,258.304901 281.012207,250.240021 
	C280.749207,249.901428 280.859528,249.272858 281.313843,248.383698 
	C284.690308,248.305771 287.649811,249.216705 290.375397,248.752975 
	C292.542725,248.384232 295.466003,246.732330 296.154297,244.926254 
	C296.920319,242.916321 295.535767,240.086777 295.087372,237.614029 
z"/>
<path fill="#000000" opacity="1.000000" stroke="none" 
	d="
M294.784424,337.031097 
	C293.762054,331.556458 295.531647,326.791748 297.427032,321.843414 
	C298.883209,318.041656 301.104309,316.544037 304.855591,316.895874 
	C304.820526,318.397247 304.763611,319.239319 304.475555,319.993042 
	C303.612946,322.249847 300.864502,324.642578 304.934875,326.480713 
	C308.999542,328.316315 310.459656,325.591736 311.893372,322.526581 
	C312.610107,320.994293 313.888367,319.724670 314.912659,318.336243 
	C315.227905,318.238190 315.539154,318.070312 315.858948,318.052155 
	C328.256378,317.349426 334.059937,312.795441 336.896484,300.277466 
	C338.252777,294.292023 338.274261,288.004120 338.962952,281.435669 
	C344.119263,289.969788 342.125488,298.760803 338.539856,307.581390 
	C332.869385,321.530609 321.278717,328.484131 308.113861,333.661072 
	C306.943176,334.121429 305.471283,334.644165 304.876099,335.597778 
	C302.147705,339.969574 298.860199,339.516846 294.784424,337.031097 
z"/>
<path fill="#000000" opacity="1.000000" stroke="none" 
	d="
M285.067871,113.087265 
	C281.699860,122.940559 274.306091,123.269814 265.489258,122.257660 
	C257.726166,121.366486 249.777618,122.190178 241.923264,121.910736 
	C240.329361,121.854034 238.433731,120.562950 237.317398,119.282692 
	C235.953674,117.718674 235.265198,115.565880 234.577057,113.318184 
	C251.602234,113.008202 268.335052,113.047737 285.067871,113.087265 
z"/>
<path fill="#E2252E" opacity="1.000000" stroke="none" 
	d="
M403.717438,254.936707 
	C405.396332,254.853516 406.733124,255.108673 408.033844,254.984940 
	C411.608063,254.644852 413.063782,255.895401 413.021851,259.732574 
	C412.964508,264.979584 413.838379,270.232727 413.873566,275.486206 
	C413.898590,279.224487 413.198761,282.967651 412.716034,287.067596 
	C409.124420,286.813080 405.592163,286.375916 402.185577,285.467529 
	C401.284668,285.227325 400.090302,283.466736 400.185181,282.519958 
	C401.102234,273.366608 402.265747,264.237915 403.717438,254.936707 
z"/>
<path fill="#000000" opacity="1.000000" stroke="none" 
	d="
M294.923889,237.400604 
	C295.535767,240.086777 296.920319,242.916321 296.154297,244.926254 
	C295.466003,246.732330 292.542725,248.384232 290.375397,248.752975 
	C287.649811,249.216705 284.690308,248.305771 281.396423,248.019012 
	C280.185486,246.999908 278.937653,246.036224 278.726624,244.882843 
	C278.186310,241.929428 276.772552,237.444626 278.127258,236.195160 
	C280.776703,233.751526 285.023926,232.266937 288.711090,232.041138 
	C290.615356,231.924530 292.737000,235.357834 294.923889,237.400604 
z"/>
<path fill="#A1A9AD" opacity="1.000000" stroke="none" 
	d="
M178.641754,323.752991 
	C178.224960,318.203247 178.207336,312.524811 178.010727,306.852570 
	C177.881332,303.118927 177.494064,299.394226 177.111877,294.150848 
	C182.772583,302.563599 187.744110,309.952118 192.855988,317.667114 
	C188.319183,319.871399 183.642014,321.749176 178.641754,323.752991 
z"/>
<path fill="#D5313C" opacity="1.000000" stroke="none" 
	d="
M387.956238,178.287720 
	C392.248474,187.142227 396.371765,195.708099 400.841095,204.992828 
	C398.608856,204.992828 397.322876,204.992828 395.643677,205.052322 
	C394.155212,203.730850 392.822571,202.476257 392.007782,200.945969 
	C389.194489,195.662170 386.635895,190.243027 383.837555,184.950912 
	C381.482727,180.497665 382.341736,178.870590 387.956238,178.287720 
z"/>
<path fill="#2F324E" opacity="1.000000" stroke="none" 
	d="
M194.072662,369.331543 
	C199.436874,366.520966 204.897507,364.010345 210.358139,361.499725 
	C210.720322,362.137726 211.082504,362.775696 211.444687,363.413696 
	C206.305115,367.612732 201.224960,371.887543 196.004700,375.983795 
	C192.621384,378.638580 190.015808,381.623657 189.860199,386.564087 
	C187.014984,384.822662 187.776749,380.067841 191.271576,377.077820 
	C193.523163,375.151489 197.055099,373.604980 194.072662,369.331543 
z"/>
<path fill="#292F49" opacity="1.000000" stroke="none" 
	d="
M145.039764,161.124329 
	C150.526718,165.403839 154.538666,176.147491 152.493103,179.389191 
	C147.766556,174.188156 142.930679,168.866821 138.094788,163.545486 
	C137.508865,163.850983 136.922958,164.156464 136.337036,164.461960 
	C136.156281,166.335770 135.975540,168.209579 135.734009,170.483582 
	C135.501205,168.346191 135.329193,165.808640 135.157181,163.271072 
	C137.073120,163.466965 139.227966,163.172485 140.853516,163.964432 
	C143.906158,165.451614 144.808731,164.341125 145.039764,161.124329 
z"/>
<path fill="#1E2340" opacity="1.000000" stroke="none" 
	d="
M206.777344,139.314697 
	C210.366394,147.652344 210.619278,156.442078 208.361679,166.359772 
	C206.725067,159.862762 205.327637,154.315201 203.993591,148.373810 
	C205.010666,146.776764 206.396271,145.701035 206.799255,144.335358 
	C207.221298,142.905060 206.699738,141.196335 206.777344,139.314697 
z"/>
<path fill="#2E324C" opacity="1.000000" stroke="none" 
	d="
M168.152405,176.684845 
	C165.320648,171.622635 162.627258,166.193924 159.923431,160.398621 
	C162.353241,161.052841 163.754486,160.339172 163.982391,157.266006 
	C167.602966,162.908295 169.146057,169.348969 168.152405,176.684845 
z"/>
<path fill="#DC7073" opacity="1.000000" stroke="none" 
	d="
M285.109314,112.847755 
	C268.335052,113.047737 251.602234,113.008202 234.394257,113.017937 
	C233.851715,112.881905 233.784348,112.696602 233.655319,112.220825 
	C250.468719,111.954002 267.343781,111.977646 284.696045,112.061966 
	C285.173187,112.122635 285.150757,112.608246 285.109314,112.847755 
z"/>
<path fill="#1E2340" opacity="1.000000" stroke="none" 
	d="
M224.826797,133.528946 
	C224.226578,133.836975 223.461395,133.834763 222.321533,133.916595 
	C217.628601,133.030075 213.315598,132.034668 208.985962,131.117905 
	C208.394485,130.992661 207.719955,131.259674 206.872498,131.373444 
	C206.872498,133.080322 206.872498,134.661026 206.809814,136.621887 
	C206.326340,134.771759 205.905533,132.541473 205.484741,130.311203 
	C207.151947,130.082565 208.911484,129.396347 210.469116,129.710678 
	C215.241653,130.673767 219.936676,132.020905 224.826797,133.528946 
z"/>
<path fill="#292F49" opacity="1.000000" stroke="none" 
	d="
M145.036346,145.043335 
	C139.721848,149.888428 139.535995,151.608734 143.910324,159.682297 
	C139.524826,158.777695 137.219025,155.740234 138.228897,151.209152 
	C138.940842,148.014816 140.434402,144.708633 145.036346,145.043335 
z"/>
<path fill="#A73745" opacity="1.000000" stroke="none" 
	d="
M368.346222,162.522797 
	C371.468109,162.547256 374.606812,162.905746 377.952271,163.606598 
	C372.644653,167.510300 370.665680,167.289673 368.346222,162.522797 
z"/>
<path fill="#C53746" opacity="1.000000" stroke="none" 
	d="
M317.006653,112.863632 
	C314.656067,112.921120 312.305511,112.978615 309.518982,113.082840 
	C309.227051,110.164116 309.371094,107.198662 309.824890,104.010788 
	C310.723724,104.328026 311.312775,104.867676 311.801514,105.969658 
	C310.005432,108.821686 309.292297,110.642197 313.288483,111.103157 
	C314.578400,111.251938 315.770050,112.252647 317.006653,112.863632 
z"/>
<path fill="#1E2340" opacity="1.000000" stroke="none" 
	d="
M199.984406,137.631409 
	C197.910583,135.309036 195.839951,132.595795 193.712646,129.531891 
	C198.611343,129.632645 199.516647,133.265961 199.984406,137.631409 
z"/>
<path fill="#2E324C" opacity="1.000000" stroke="none" 
	d="
M152.867325,150.736115 
	C150.654816,149.278732 148.370819,147.474106 145.931427,145.364578 
	C149.542084,144.957565 151.566757,147.149246 152.867325,150.736115 
z"/>
<path fill="#2E324C" opacity="1.000000" stroke="none" 
	d="
M156.905243,155.711731 
	C155.603790,154.636765 154.270905,153.209167 152.917542,151.427124 
	C154.222656,152.501480 155.548218,153.930283 156.905243,155.711731 
z"/>
<path fill="#1E2340" opacity="1.000000" stroke="none" 
	d="
M203.989532,146.577179 
	C203.042831,144.887283 202.068161,142.821136 201.017395,140.394821 
	C201.948044,142.090073 202.954803,144.145493 203.989532,146.577179 
z"/>
<path fill="#2E324C" opacity="1.000000" stroke="none" 
	d="
M159.937912,159.707108 
	C158.964569,158.948120 157.983307,157.831940 156.975494,156.386932 
	C157.942642,157.155380 158.936310,158.252655 159.937912,159.707108 
z"/>
<path fill="#1E2340" opacity="1.000000" stroke="none" 
	d="
M200.910034,139.761017 
	C200.648087,139.565765 200.331375,139.085739 199.995483,138.305313 
	C200.269287,138.495361 200.562271,138.985809 200.910034,139.761017 
z"/>
<path fill="#C15353" opacity="1.000000" stroke="none" 
	d="
M132.018723,258.533142 
	C131.826904,258.550201 131.588501,258.318176 131.308105,257.830505 
	C131.501450,257.811249 131.736786,258.047668 132.018723,258.533142 
z"/>
<path fill="#B63741" opacity="1.000000" stroke="none" 
	d="
M80.633957,387.732483 
	C74.889717,387.758148 68.780113,387.603333 62.340416,387.193329 
	C68.096413,387.142792 74.182503,387.347412 80.633957,387.732483 
z"/>
<path fill="#B63741" opacity="1.000000" stroke="none" 
	d="
M59.114429,382.917236 
	C58.813984,382.869263 58.545593,382.635712 58.149456,382.166565 
	C58.396633,382.197845 58.771561,382.464752 59.114429,382.917236 
z"/>
<path fill="#B63741" opacity="1.000000" stroke="none" 
	d="
M61.932392,386.764923 
	C61.762054,386.817413 61.526562,386.602966 61.222374,386.123352 
	C61.384888,386.077972 61.622742,386.291260 61.932392,386.764923 
z"/>
<path fill="#C15353" opacity="1.000000" stroke="none" 
	d="
M26.253773,264.011047 
	C26.115541,263.676270 26.122288,263.109985 26.187746,262.120209 
	C26.297220,262.390991 26.347984,263.085266 26.253773,264.011047 
z"/>
<path fill="#33374E" opacity="1.000000" stroke="none" 
	d="
M335.821655,101.043190 
	C335.261169,100.804428 334.601257,100.260544 333.924805,99.365791 
	C334.512909,99.589302 335.117584,100.163689 335.821655,101.043190 
z"/>
<path fill="#1E294C" opacity="1.000000" stroke="none" 
	d="
M187.149902,284.159241 
	C182.475357,279.303375 177.846756,274.402069 173.108994,269.608704 
	C170.270828,266.737244 171.054565,264.336700 173.833206,262.157501 
	C181.046371,256.500427 192.510620,254.861313 201.119934,259.375153 
	C210.516449,264.301758 220.151672,268.244904 231.100571,266.998230 
	C233.992371,266.668915 236.867096,266.189545 240.384659,266.760010 
	C239.513962,267.767853 238.643265,268.775696 237.108994,269.944061 
	C227.973892,275.281006 219.275436,278.657227 208.995987,275.549744 
	C207.316727,275.042084 204.071426,277.147797 202.660263,278.926544 
	C200.581833,281.546295 199.501129,284.957611 197.989639,288.043671 
	C194.219345,286.692566 190.684631,285.425903 187.149902,284.159241 
z"/>
<path fill="#A1A7B0" opacity="1.000000" stroke="none" 
	d="
M187.283112,284.463531 
	C190.684631,285.425903 194.219345,286.692566 197.989639,288.043671 
	C199.501129,284.957611 200.581833,281.546295 202.660263,278.926544 
	C204.071426,277.147797 207.316727,275.042084 208.995987,275.549744 
	C219.275436,278.657227 227.973892,275.281006 236.804474,270.036224 
	C236.924225,274.634216 229.095474,281.707153 223.577972,281.973694 
	C221.312851,282.083099 219.021378,281.440491 216.735336,281.377563 
	C214.155594,281.306488 211.248596,280.769562 209.048355,281.729279 
	C203.783173,284.025818 203.823944,285.200806 208.034149,292.823029 
	C199.488266,293.959503 193.516998,289.191559 187.283112,284.463531 
z"/>
<path fill="#1E2A4C" opacity="1.000000" stroke="none" 
	d="
M314.864777,317.956238 
	C313.888367,319.724670 312.610107,320.994293 311.893372,322.526581 
	C310.459656,325.591736 308.999542,328.316315 304.934875,326.480713 
	C300.864502,324.642578 303.612946,322.249847 304.475555,319.993042 
	C304.763611,319.239319 304.820526,318.397247 305.054291,317.196533 
	C305.635071,315.130768 306.869812,313.291138 306.521210,311.828979 
	C305.383118,307.055695 307.257172,303.392303 309.962585,299.892395 
	C313.101746,295.831390 316.046600,291.560211 319.632385,287.930054 
	C321.381836,286.158966 324.901459,284.235138 326.712036,284.890045 
	C329.169067,285.778839 332.136566,288.881409 332.483856,291.369598 
	C334.281860,304.252625 333.573151,306.997040 322.536011,311.881439 
	C319.681854,313.144501 317.375092,315.644409 314.864777,317.956238 
z"/>
<path fill="#E82230" opacity="1.000000" stroke="none" 
	d="
M317.322510,112.814774 
	C315.770050,112.252647 314.578400,111.251938 313.288483,111.103157 
	C309.292297,110.642197 310.005432,108.821686 311.912659,106.250336 
	C314.651123,107.252563 317.178070,108.536438 320.065826,110.003632 
	C319.044098,111.166298 318.341217,111.966103 317.322510,112.814774 
z"/>
</svg>